<mxfile host="app.diagrams.net" modified="2021-04-23T05:00:18.012Z" agent="5.0 (Windows NT 10.0; Win64; x64) AppleWebKit/537.36 (KHTML, like Gecko) Chrome/90.0.4430.72 Safari/537.36 Edg/90.0.818.42" etag="GPIaANlFVQdFFRoXRvcL" version="14.6.6" type="github">
  <diagram id="lE9u7qKXHCOXGXFOIr1t" name="Page-1">
    <mxGraphModel dx="772" dy="433" grid="1" gridSize="10" guides="1" tooltips="1" connect="1" arrows="1" fold="1" page="1" pageScale="1" pageWidth="850" pageHeight="1100" math="0" shadow="0">
      <root>
        <mxCell id="0" />
        <mxCell id="1" parent="0" />
        <mxCell id="If21M9Ff1mDIDaXwu5bT-1" value="" style="ellipse;whiteSpace=wrap;html=1;aspect=fixed;fillColor=#f8cecc;strokeColor=#b85450;" vertex="1" parent="1">
          <mxGeometry x="320" y="200" width="80" height="80" as="geometry" />
        </mxCell>
        <mxCell id="If21M9Ff1mDIDaXwu5bT-2" value="" style="endArrow=classic;html=1;entryX=0;entryY=0;entryDx=0;entryDy=0;" edge="1" parent="1" target="If21M9Ff1mDIDaXwu5bT-1">
          <mxGeometry width="50" height="50" relative="1" as="geometry">
            <mxPoint x="200" y="160" as="sourcePoint" />
            <mxPoint x="420" y="220" as="targetPoint" />
          </mxGeometry>
        </mxCell>
        <mxCell id="If21M9Ff1mDIDaXwu5bT-3" value="FrontEnd Req object" style="text;html=1;strokeColor=#6c8ebf;align=center;verticalAlign=middle;whiteSpace=wrap;rounded=0;fillColor=#dae8fc;" vertex="1" parent="1">
          <mxGeometry x="50" y="110" width="160" height="50" as="geometry" />
        </mxCell>
        <mxCell id="If21M9Ff1mDIDaXwu5bT-4" value="App.js" style="text;html=1;strokeColor=none;fillColor=none;align=center;verticalAlign=middle;whiteSpace=wrap;rounded=0;" vertex="1" parent="1">
          <mxGeometry x="340" y="230" width="40" height="20" as="geometry" />
        </mxCell>
        <mxCell id="If21M9Ff1mDIDaXwu5bT-5" value="" style="endArrow=classic;html=1;entryX=0.5;entryY=1;entryDx=0;entryDy=0;exitX=0;exitY=1;exitDx=0;exitDy=0;" edge="1" parent="1" source="If21M9Ff1mDIDaXwu5bT-1" target="If21M9Ff1mDIDaXwu5bT-3">
          <mxGeometry width="50" height="50" relative="1" as="geometry">
            <mxPoint x="370" y="350" as="sourcePoint" />
            <mxPoint x="420" y="300" as="targetPoint" />
            <Array as="points">
              <mxPoint x="130" y="268" />
            </Array>
          </mxGeometry>
        </mxCell>
        <mxCell id="If21M9Ff1mDIDaXwu5bT-6" value="BackEnd object res.send" style="text;html=1;strokeColor=#b85450;fillColor=#f8cecc;align=center;verticalAlign=middle;whiteSpace=wrap;rounded=0;" vertex="1" parent="1">
          <mxGeometry x="150" y="240" width="150" height="30" as="geometry" />
        </mxCell>
      </root>
    </mxGraphModel>
  </diagram>
</mxfile>
